/* XPM */
static char *cad2octree_XpmWriterFile_y3[]= {
"128 128 2 1",
/* columns rows colors chars-per-pixel */
"  m white c white ",
"* m black c black ",
/* pixels */
"                                                                                                                                ",
"                                                                                                                                ",
"                                                                                                                                ",
"                                                                                                                                ",
"                                                                                                                                ",
"                                                                                                                                ",
"                                                                                                                                ",
"                                                                                                                                ",
"                                                                                                                                ",
"                                                                                                                                ",
"                                                                                                                                ",
"                                                                                                                                ",
"                                                                                                                                ",
"                                                                                                                                ",
"                                                                                                                                ",
"                                                                                                                                ",
"                                                                                                                                ",
"                                                                                                                                ",
"                                                                                                                                ",
"                                                                                                                                ",
"                                                                                                                                ",
"                                                                                                                                ",
"                                                                                                                                ",
"                                                                                                                                ",
"                                                                                                                                ",
"                                                                                                                                ",
"                                                                                                                                ",
"                                                                                                                                ",
"                                                                                                                                ",
"                                                                                                                                ",
"                                                                                                                                ",
"                                                                                                                                ",
"                                                                                                                                ",
"                                                                                                                                ",
"                                                                                                                                ",
"                                                                                                                                ",
"                                                                                                                                ",
"                                                                                                                                ",
"                                                                                                                                ",
"                                                                                                                                ",
"                                                                                                                                ",
"                                                           *    ***                                                             ",
"                                                          ***   ****                                                            ",
"                                                         *****  **********                                                      ",
"                                                         *****************                                                      ",
"                                                    **********************                                                      ",
"                                                  *****************************                                                 ",
"                                                   *****************************                                                ",
"                                                   *****************************                                                ",
"                                                *******************************                                                 ",
"                                               **********************************                                               ",
"                                              **************************************                                            ",
"                                               *************************************                                            ",
"                                               ************************************                                             ",
"                                            **************************************                                              ",
"                                            ***************************************                                             ",
"                                           ****************************************                                             ",
"                                          ********************************************                                          ",
"                                            ******************************************                                          ",
"                                            ******************************************                                          ",
"                                            *****************************************                                           ",
"                                           *****************************************                                            ",
"                                          ******************************************                                            ",
"                                          ******************************************                                            ",
"                                         **********************************************                                         ",
"                                            ******************************************                                          ",
"                                            ******************************************                                          ",
"                                            *****************************************                                           ",
"                                           *****************************************                                            ",
"                                          ******************************************                                            ",
"                                          ********************************************                                          ",
"                                             ****************************************                                           ",
"                                             ***************************************                                            ",
"                                              **************************************                                            ",
"                                             *************************************                                              ",
"                                            **************************************                                              ",
"                                            ***************************************                                             ",
"                                                **********************************                                              ",
"                                                 ********************************                                               ",
"                                                 *****************************                                                  ",
"                                                *****************************                                                   ",
"                                                *****************************                                                   ",
"                                                 *****************************                                                  ",
"                                                      *****************  ***                                                    ",
"                                                      *********** *****                                                         ",
"                                                            *****  ***                                                          ",
"                                                             ****   *                                                           ",
"                                                                                                                                ",
"                                                                                                                                ",
"                                                                                                                                ",
"                                                                                                                                ",
"                                                                                                                                ",
"                                                                                                                                ",
"                                                                                                                                ",
"                                                                                                                                ",
"                                                                                                                                ",
"                                                                                                                                ",
"                                                                                                                                ",
"                                                                                                                                ",
"                                                                                                                                ",
"                                                                                                                                ",
"                                                                                                                                ",
"                                                                                                                                ",
"                                                                                                                                ",
"                                                                                                                                ",
"                                                                                                                                ",
"                                                                                                                                ",
"                                                                                                                                ",
"                                                                                                                                ",
"                                                                                                                                ",
"                                                                                                                                ",
"                                                                                                                                ",
"                                                                                                                                ",
"                                                                                                                                ",
"                                                                                                                                ",
"                                                                                                                                ",
"                                                                                                                                ",
"                                                                                                                                ",
"                                                                                                                                ",
"                                                                                                                                ",
"                                                                                                                                ",
"                                                                                                                                ",
"                                                                                                                                ",
"                                                                                                                                ",
"                                                                                                                                ",
"                                                                                                                                ",
"                                                                                                                                ",
"                                                                                                                                "};
